<svg aria-hidden="true" style="position:absolute;width:0;height:0;overflow:hidden" xmlns="http://www.w3.org/2000/svg">
  <defs>
    <symbol id="icon-linkedin" viewBox="0 0 32 32">
      <path d="M32 32V20.3c0-5.8-1.2-10.2-8-10.2a7 7 0 0 0-6.2 3.4h-.1v-2.9h-6.4V32H18V21.4c0-2.8.6-5.5 4-5.5s3.5 3.2 3.5 5.7V32H32zM.5 10.6h6.7V32H.5V10.6zM3.8 0C1.8 0 0 1.7 0 3.8s1.7 4 3.8 4c2.2 0 3.9-1.8 3.9-4A3.8 3.8 0 0 0 3.8 0z"/>
    </symbol>
    <symbol id="icon-facebook" viewBox="0 0 32 32">
      <path d="M21.3 5.3h3v-5C23.6.1 22 0 20 0c-4.2 0-7.1 2.6-7.1 7.5V12H8.2v5.7H13V32h5.7V17.7h4.5l.7-5.7h-5.2V8c0-1.6.4-2.7 2.7-2.7z"/>
    </symbol>
    <symbol id="icon-twitter" viewBox="0 0 32 32">
      <path d="M32 6c-1.2.6-2.5 1-3.8 1.1a6.5 6.5 0 0 0 3-3.6A13.1 13.1 0 0 1 26.8 5 6.6 6.6 0 0 0 22.2 3a6.6 6.6 0 0 0-6.5 8A18.6 18.6 0 0 1 2.2 4.3a6.6 6.6 0 0 0-.9 3.3 6.6 6.6 0 0 0 3 5.5 6.5 6.5 0 0 1-3-.8c0 3.2 2.3 5.9 5.2 6.5a6.5 6.5 0 0 1-1.7.2 5.8 5.8 0 0 1-1.2-.1 6.6 6.6 0 0 0 6.1 4.5 13.2 13.2 0 0 1-8.1 2.8H0A18.5 18.5 0 0 0 10 29 18.5 18.5 0 0 0 28.8 9.5 13 13 0 0 0 32 6z"/>
    </symbol>
    <symbol id="icon-instagram" viewBox="0 0 32 32">
      <path d="M32 9.4c-.1-1.7-.4-2.9-.8-3.9a7.8 7.8 0 0 0-1.8-2.8A7.9 7.9 0 0 0 26.5.8c-1-.4-2.1-.6-3.8-.7A109.5 109.5 0 0 0 5.6.8a7.8 7.8 0 0 0-2.9 1.9A7.9 7.9 0 0 0 1 5.5C.5 6.5.2 7.7.2 9.4a109.5 109.5 0 0 0 .7 17 7.9 7.9 0 0 0 1.8 3 7.9 7.9 0 0 0 2.9 1.8c1 .4 2.2.6 3.9.7a117.2 117.2 0 0 0 17-.7 8.2 8.2 0 0 0 4.7-4.7c.4-1 .7-2.2.8-3.9V9.4zm-3 13c0 1.6-.2 2.5-.5 3a5.3 5.3 0 0 1-3 3c-.6.3-1.4.6-3 .6a112.7 112.7 0 0 1-15.9-.5 5 5 0 0 1-1.8-1.2 5 5 0 0 1-1.2-1.9c-.2-.5-.5-1.4-.5-3a112.7 112.7 0 0 1 .5-15.8 4.9 4.9 0 0 1 1.2-1.9 5 5 0 0 1 1.8-1.2c.6-.2 1.5-.4 3-.5a112.7 112.7 0 0 1 16 .5 5 5 0 0 1 1.7 1.2 5 5 0 0 1 1.2 1.9c.3.5.5 1.4.6 3a112.7 112.7 0 0 1 0 12.9z"/>
      <path d="M16 7.8a8.2 8.2 0 1 0 0 16.4 8.2 8.2 0 0 0 0-16.4zm0 13.5a5.3 5.3 0 0 1 0-10.6 5.3 5.3 0 0 1 0 10.6zM26.6 7.5a2 2 0 1 1-3.8 0 2 2 0 0 1 3.8 0z"/>
    </symbol>
    <symbol id="icon-diagram" viewBox="0 0 32 32">
      <path d="M15 15h1v4.8h-1V15zm4.2 2.1h1v2.7h-1V17zm-8.5 1.6h1v1h-1v-1zm-3.2-.5h1v1.6h-1v-1.6z"/>
      <path d="M1.6 28.3h25.6a1.6 1.6 0 0 0 1.6-1.6v-2.1a1.6 1.6 0 0 0-1.6-1.6h-.5V9.7l3-2.9a1.6 1.6 0 1 0-.8-.8l-2.2 2.2V7A1.6 1.6 0 0 0 25 5.4H3.7A1.6 1.6 0 0 0 2.1 7v16h-.5A1.6 1.6 0 0 0 0 24.6v2a1.6 1.6 0 0 0 1.6 1.7zM30.4 4.8a.5.5 0 1 1 0 1.1.5.5 0 0 1 0-1zM3.2 7c0-.3.2-.6.5-.6h21.4c.2 0 .5.3.5.6v2.2l-1 1V8a.5.5 0 0 0-.6-.5H4.8a.5.5 0 0 0-.5.5v13.4c0 .3.2.5.5.5H24a.5.5 0 0 0 .5-.5v-9.7l1-1V23H3.3V7zM8 13.9a1.6 1.6 0 1 0 1.1 2.7l1.9 1a.5.5 0 0 0 .6-.1l4-4.5 3.8 3a.5.5 0 0 0 .7-.1l3.4-3.2v8.1H5.3V8.6h18.2v2.6l-3.8 3.6-4-3a.5.5 0 0 0-.6.1l-4 4.5-1.5-.7v-.2A1.6 1.6 0 0 0 8 13.9zm.5 1.6a.5.5 0 1 1-1 0 .5.5 0 0 1 1 0zm3.2 8.5h5.4v.6a.5.5 0 0 1-.6.5h-4.2a.5.5 0 0 1-.6-.5V24zm-10.6.6c0-.3.2-.6.5-.6h9v.6a1.6 1.6 0 0 0 1.7 1.6h4.2a1.6 1.6 0 0 0 1.6-1.6V24h9c.4 0 .6.3.6.6v2a.5.5 0 0 1-.5.6H1.6a.5.5 0 0 1-.5-.5v-2.1z"/>
    </symbol>
    <symbol id="icon-clock" viewBox="0 0 32 32">
      <path d="M31.3 15.3a15.3 15.3 0 1 0-30.6 0A15.3 15.3 0 0 0 11.3 30a.7.7 0 0 0 .6 0 .6.6 0 0 0 .2-.4l4-12.3a2 2 0 1 0-1-3.6l-5-5.1a.6.6 0 0 0-1 .9l5.2 5a1.9 1.9 0 0 0 .5 2.4l-3.7 11.7a14 14 0 1 1 18-8.4 14 14 0 0 1-7.4 8l-.4-1.9a.6.6 0 0 0-1-.3l-3.9 3.4a.6.6 0 0 0 .2 1.1l5 1.6a.6.6 0 0 0 .8-.8l-.4-1.8a15.3 15.3 0 0 0 9.3-14.1zM16 14.7a.6.6 0 1 1 0 1.2.6.6 0 0 1 0-1.2zm2 14.8 2.3-2 .6 3-2.8-1z"/>
      <path d="M15.4 3.2v1.3a.6.6 0 1 0 1.2 0V3.2a.6.6 0 0 0-1.2 0zM3.9 14.7a.6.6 0 0 0 0 1.2h1.3a.6.6 0 1 0 0-1.2H3.9zM28 15.9a.6.6 0 1 0 0-1.2h-1.3a.6.6 0 0 0 0 1.2h1.3z"/>
    </symbol>
    <symbol id="icon-antenna" viewBox="0 0 32 32">
      <path d="m30.8 22.1-8.5-8.5 1-4.6.7.1a2.2 2.2 0 1 0-2-1.4l-5 .6L9 .2a.5.5 0 0 0-.4-.2.5.5 0 0 0-.4.2L6.7 1.7a.5.5 0 0 0 0 .7l.8.8A15 15 0 0 0 10 21a.5.5 0 0 0 .2.1v6.7H3.6a2.7 2.7 0 0 0-2.6 2.7v1c0 .4.2.6.5.6h24.5a.5.5 0 0 0 .6-.5v-1.1a2.7 2.7 0 0 0-2.7-2.7h-6.4V25a15 15 0 0 0 3 .3 14.9 14.9 0 0 0 7-1.8l1 .9a.5.5 0 0 0 .3.1.5.5 0 0 0 .4-.1l1.5-1.5a.5.5 0 0 0 0-.8zM23.3 6.2a1 1 0 1 1 .7 1.9 1 1 0 0 1-.7-1.9zM22 9.7l-.6 3-1.1-1.2L22 9.7zm-.6-.9-1.9 2L18 9.2l3.4-.5zm2.6 20a1.6 1.6 0 0 1 1.6 1.6v.5H2.1v-.5a1.6 1.6 0 0 1 1.6-1.6H24zm-7.5-2.1v1h-5.3v-1h5.3zm-5.3-1.1v-4c0-1.3 1.2-2.4 2.7-2.4s2.6 1 2.6 2.3v4.1h-5.3zm6.4-1.7v-2.4c0-1.8-1.7-3.4-3.7-3.4a3.8 3.8 0 0 0-3.3 1.8A13.9 13.9 0 0 1 8.3 4L27 22.7a13.8 13.8 0 0 1-9.3 1.2zm11.3-.7L7.9 2l.7-.7 8 8 13 13.2-.7.7z"/>
      <path d="M13.9 20.3a1.6 1.6 0 1 0 0 3.2 1.6 1.6 0 1 0 0-3.2zm.3 2a.5.5 0 0 1-.7-.8.5.5 0 0 1 .4-.2.5.5 0 0 1 .3 1z"/>
    </symbol>
    <symbol id="icon-astronaut" viewBox="0 0 32 32">
      <path d="M32 4.5a.5.5 0 0 0-.5-.3l-1.9-.3-.8-1.7c-.2-.4-.8-.4-1 0L27 3.9l-2 .3a.5.5 0 0 0-.2.9L26 6.4l-.3 2c0 .1 0 .3.2.4a.5.5 0 0 0 .6 0l1.7-.8 1.7.9a.5.5 0 0 0 .8-.6l-.3-1.9 1.3-1.3a.5.5 0 0 0 .2-.6zM29.5 6a.5.5 0 0 0-.1.4l.1 1.1-1-.5a.5.5 0 0 0-.4 0l-1 .5.1-1a.5.5 0 0 0-.1-.5l-.8-.8 1.1-.2a.5.5 0 0 0 .4-.3l.5-1 .5 1a.5.5 0 0 0 .4.3l1.1.2-.8.8zm-3.4 14.6h-1v1h1v-1zm0 2.2h-1v1h1v-1zm1.1-1.1h-1v1h1v-1zm-2.1 0H24v1h1v-1zm-2.7 4.8h-1v1h1v-1zm0 2.1h-1v1h1v-1zm1-1h-1v1h1v-1zm-2 0h-1.1v1h1v-1zM16 24.3h-1v1h1v-1zm0 2h-1v1.2h1v-1.1zm1-1h-1v1h1v-1zm-2 0h-1.1v1h1v-1zM5.8 6.1H4.8v1h1v-1zm0 2.2H4.8v1h1v-1zM7 7.2H5.8v1h1v-1zm-2.2 0h-1v1h1v-1z"/>
      <path d="M24.7 14.2a1.8 1.8 0 0 0-1.2-.7 1.8 1.8 0 0 0-1.3.3l-1.3 1-1.9 1.4-1.3-.6a7 7 0 0 0-2.9-13.2 7 7 0 0 0-7 7A6.9 6.9 0 0 0 9 13H6.2a.5.5 0 0 0-.2 0l-3.2 1.6-2 1a1.8 1.8 0 0 0-.6 2.2c.2.5.6.8 1 1a1.8 1.8 0 0 0 1.4-.2L4 18l2.3-1.2h1.3l-5.4 5.4-1.3 1.3a1.7 1.7 0 0 0 0 2.4 1.7 1.7 0 0 0 2.3 0l1.3-1.3 1.8-1.3.9.9-1.8 1.7-1.3 1.4a1.7 1.7 0 0 0 0 2.3 1.7 1.7 0 0 0 2.3 0l3.5-3.4 1-1 5.2-5.7 3.5.5a.5.5 0 0 0 .2 0l.1-.1 3.3-2.1 1.3-1.3c.7-.6.8-1.6.2-2.3zM2.1 17.8a.7.7 0 0 1-.5 0 .7.7 0 0 1-.2-1.2l1.3-.7.4 1.3-1 .6zm3.5-1.9-1.5.8-.5-1.2 2-1v1.4zm15.1-6.6a5.8 5.8 0 0 1-.6 2.6l-4.2-2a1.9 1.9 0 0 0-.7-1.3l1.4-4.9c2.4.8 4.1 3 4.1 5.6zM9 9.3a5.9 5.9 0 0 1 6.7-5.8L14 8.3a1.9 1.9 0 1 0 0 3.7c.7 0 1.3-.4 1.6-1l3.9 1.8a5.9 5.9 0 0 1-4.8 2.4A5.9 5.9 0 0 1 9 9.3zm6 .8a.8.8 0 0 1-1.6 0 .8.8 0 0 1 1.6 0zm-12.4 15a.6.6 0 0 1-.9 0 .6.6 0 0 1 0-.8l1-1 .8.9-1 1zM5.7 29a.6.6 0 0 1-.9 0 .6.6 0 0 1 0-.9l1-1 .8 1-1 .9zm3.5-3.5-1.8 1.8-.9-.9 1.8-1.7.1-.2V24a.6.6 0 0 0 0-.1h-.1l-1.6-1.7a.5.5 0 0 0-.1 0 .5.5 0 0 0-.1-.1.5.5 0 0 0-.1 0 .5.5 0 0 0-.1 0 .5.5 0 0 0-.1 0 .5.5 0 0 0-.1 0H6l-1.8 1.4-.9-1 2.4-2.3 4.4 4.3-1 1zm6.8-7a.6.6 0 0 0-.4 0 .5.5 0 0 0 0 .1l-4.8 5.2-4.3-4.2 2.8-2.9a.5.5 0 0 0-.4-.9H6.7v-1.6H10a7 7 0 0 0 5 2.2c.4 0 .8 0 1.2-.2l.1.1 2.5 1 .1.7.2 1-3-.5zm4 .2-.3-1.6 1.5-1 .9 1.2-2 1.4zm3.8-2.9-.9.8-.9-1.2.8-.6a.7.7 0 0 1 .6-.2.7.7 0 0 1 .5.3.7.7 0 0 1-.1 1z"/>
      <path d="m13.6 18.5-2.1-2a.5.5 0 0 0-.8 0l-2.1 2a.5.5 0 0 0 0 .8l2.1 2.1a.5.5 0 0 0 .8 0l2.1-2.1a.5.5 0 0 0 0-.8zm-2.5 1.8-1.4-1.4 1.4-1.4 1.4 1.4-1.4 1.4zm6-15.2L17 6s1.7.5 1.7 2.2h1.1c0-2-1.7-3-2.5-3.2zm2.6 4.2h-1v1h1v-1z"/>
    </symbol>
    <symbol id="icon-email" viewBox="0 0 24 32">
      <path d="M20 8h-16c-1.1 0-1.99 0.9-1.99 2l-0.010 12c0 1.1 0.9 2 2 2h16c1.1 0 2-0.9 2-2v-12c0-1.1-0.9-2-2-2zM19.6 12.25l-7.070 4.42c-0.32 0.2-0.74 0.2-1.060 0l-7.070-4.42c-0.25-0.16-0.4-0.43-0.4-0.72 0-0.67 0.73-1.070 1.3-0.72l6.7 4.19 6.7-4.19c0.57-0.35 1.3 0.050 1.3 0.72 0 0.29-0.15 0.56-0.4 0.72z"></path>
    </symbol>
    <symbol id="icon-person" viewBox="0 0 32 32">
      <path d="M16 16c2.947 0 5.333-2.387 5.333-5.333s-2.387-5.333-5.333-5.333c-2.947 0-5.333 2.387-5.333 5.333s2.387 5.333 5.333 5.333zM16 18.667c-3.56 0-10.667 1.787-10.667 5.333v1.333c0 0.733 0.6 1.333 1.333 1.333h18.667c0.733 0 1.333-0.6 1.333-1.333v-1.333c0-3.547-7.107-5.333-10.667-5.333z"></path>
    </symbol>
    <symbol id="icon-phone" viewBox="0 0 24 32">
      <path d="M19.635 18.487l-2.451-0.28c-0.589-0.067-1.167 0.135-1.582 0.55l-1.775 1.775c-2.731-1.389-4.969-3.618-6.359-6.359l1.785-1.785c0.415-0.415 0.618-0.994 0.55-1.582l-0.28-2.432c-0.116-0.975-0.936-1.708-1.92-1.708h-1.669c-1.090 0-1.997 0.907-1.93 1.997 0.511 8.24 7.102 14.821 15.332 15.332 1.090 0.068 1.997-0.839 1.997-1.93v-1.669c0.010-0.975-0.724-1.795-1.698-1.911z"></path>
    </symbol>
    <symbol id="icon-paper-fly" viewBox="0 0 38 32">
      <path d="M38.4 0l-38.4 18 12.272 3.788 18.928-14.788-14.397 16.186 0.012 0.004-0.014-0.004v8.814l6.882-6.691 8.718 2.691 6-28z"></path>
    </symbol>
    <symbol id="icon-close-blutton" viewBox="0 0 32 32">
      <path d="M32 3.223l-3.223-3.223-12.777 12.777-12.777-12.777-3.223 3.223 12.777 12.777-12.777 12.777 3.223 3.223 12.777-12.777 12.777 12.777 3.223-3.223-12.777-12.777 12.777-12.777z"></path>
</symbol>
<symbol id="icon-vector" viewBox="0 0 40 32">
<path d="M33.782 1.020c0.691-0.662 1.611-1.027 2.565-1.020s1.869 0.387 2.55 1.059c0.681 0.672 1.076 1.584 1.101 2.543s-0.321 1.891-0.966 2.598l-19.578 24.617c-0.337 0.365-0.743 0.657-1.195 0.86s-0.939 0.312-1.434 0.322c-0.495 0.009-0.986-0.082-1.445-0.268s-0.876-0.463-1.226-0.815l-12.984-13.054c-0.362-0.339-0.652-0.747-0.853-1.201s-0.309-0.944-0.318-1.441 0.082-0.99 0.267-1.451c0.185-0.461 0.461-0.879 0.81-1.231s0.766-0.628 1.224-0.814 0.949-0.277 1.443-0.269c0.494 0.009 0.981 0.118 1.433 0.32s0.858 0.494 1.195 0.857l10.275 10.325 17.042-21.83c0.031-0.038 0.063-0.074 0.098-0.109h-0.005z"></path>
</symbol>
  </defs>
</svg>